<svg id="bl_141_wallet_money_cash_credit_card_coin_income_purse" data-name="bl 141, wallet, money, cash, credit card, coin, income, purse" xmlns="http://www.w3.org/2000/svg" viewBox="0 0 72 72">
  <defs>
    <style>
      .cls-1, .cls-2, .cls-3 {
        fill: none;
        stroke-miterlimit: 10;
        stroke-width: 2px;
      }

      .cls-1 {
        stroke: #892bba;
      }

      .cls-2 {
        stroke: #47bf9b;
      }

      .cls-3 {
        stroke: #1dbce8;
      }
    </style>
  </defs>
  <path id="Path_127" data-name="Path 127" class="cls-1" d="M10.13,16H4.043A3.043,3.043,0,0,0,1,19.043H1a3.043,3.043,0,0,0,3.043,3.043H57.3V63.174H4.043A3.043,3.043,0,0,1,1,60.13H1V19.043" transform="translate(0 7.826)"/>
  <path id="Path_128" data-name="Path 128" class="cls-1" d="M41.652,40.13H31V31H41.652" transform="translate(15.652 15.652)"/>
  <g id="Group_58" data-name="Group 58" transform="translate(16.217 13.174)">
    <path id="Path_129" data-name="Path 129" class="cls-2" d="M24,22.609a7.609,7.609,0,1,1,15.217,0" transform="translate(-4.217 -5.87)"/>
    <path id="Path_130" data-name="Path 130" class="cls-2" d="M49.609,16.609H44.536L42,14.072V9" transform="translate(5.174 -9)"/>
    <path id="Path_131" data-name="Path 131" class="cls-2" d="M52.213,40.957H65.783V9H11V25.613" transform="translate(-11 -9)"/>
    <path id="Path_132" data-name="Path 132" class="cls-2" d="M39.217,22.609a7.609,7.609,0,1,0-15.217,0" transform="translate(-4.217 -5.87)"/>
    <path id="Path_133" data-name="Path 133" class="cls-2" d="M11,16.609h5.072l2.536-2.536V9" transform="translate(-11 -9)"/>
    <path id="Path_134" data-name="Path 134" class="cls-2" d="M49.609,25H44.536L42,27.536v5.072" transform="translate(5.174 -0.652)"/>
  </g>
  <g id="Group_59" data-name="Group 59" transform="translate(10.13 1)">
    <path id="Path_135" data-name="Path 135" class="cls-3" d="M55.7,13.174V2.522A1.522,1.522,0,0,0,54.174,1H8.522A1.522,1.522,0,0,0,7,2.522V29.913" transform="translate(-7 -1)"/>
    <line id="Line_49" data-name="Line 49" class="cls-3" y2="3.043" transform="translate(42.609 4.565)"/>
    <line id="Line_50" data-name="Line 50" class="cls-3" y2="3.043" transform="translate(6.087 4.565)"/>
  </g>
</svg>
